<svg width="96" height="31" viewBox="0 0 96 31" fill="none" xmlns="http://www.w3.org/2000/svg">
<path d="M76.6643 7.96717L77.3513 1.68945L77.0516 1.65942L76.3389 8.19566C76.4342 8.10318 76.544 8.02605 76.6643 7.96717Z" fill="url(#paint0_linear_329_5694)"/>
<path d="M82.6527 3.87354L73.4121 9.96446L73.5821 10.2063L82.8228 4.1162L82.6527 3.87354Z" fill="url(#paint1_linear_329_5694)"/>
<path d="M84.4798 3.01302C74.4475 0.418707 65.54 0.216064 65.54 0.216064L69.4377 5.37801C69.8345 5.1862 70.4862 5.48808 70.8495 5.30129C73.7176 3.82776 79.4598 3.70434 82.0986 4.63415C82.13 4.64591 82.1638 4.65045 82.1973 4.64741C82.2309 4.64437 82.2632 4.63384 82.2918 4.61664C82.6808 4.38815 84.1879 3.49752 84.5314 3.22567C84.5489 3.21092 84.5618 3.19181 84.569 3.17041C84.5761 3.14901 84.577 3.12613 84.5717 3.10424C84.5664 3.08235 84.5551 3.06228 84.5389 3.0462C84.5227 3.03013 84.5023 3.01865 84.4798 3.01302Z" fill="url(#paint2_linear_329_5694)"/>
<path style="mix-blend-mode:screen" d="M84.551 3.19561C84.5621 3.17957 84.569 3.16119 84.5713 3.14201C84.5735 3.12284 84.571 3.10342 84.5639 3.08538C84.5569 3.06733 84.5455 3.0512 84.5307 3.03831C84.5159 3.02542 84.4981 3.01617 84.4789 3.01131C74.4465 0.416998 65.5391 0.214355 65.5391 0.214355L67.1449 1.75877C69.1276 1.75877 71.6102 1.73459 75.9501 1.96641C78.5537 2.10401 81.4957 2.53181 84.551 3.19561Z" fill="url(#paint3_linear_329_5694)"/>
<path d="M64.9621 0.194265C64.9621 0.194265 64.4949 0.1042 63.6448 0.155903C63.6448 0.155903 60.1309 0.322686 57.5771 0.663758C57.3056 0.700566 57.0409 0.775279 56.7914 0.885579L54.9572 1.68781C54.9334 1.69854 54.914 1.7165 54.9017 1.73897C54.8894 1.76144 54.8851 1.78718 54.8892 1.81228C54.8934 1.83739 54.9059 1.86048 54.9248 1.87805C54.9438 1.89562 54.9681 1.90671 54.9941 1.90963C60.7071 2.64598 64.9724 4.06614 66.8444 5.1152C67.485 5.47462 69.4995 9.00209 70.5154 11.6715C70.8795 11.8499 71.867 11.9667 71.8644 11.97C71.8618 11.9733 68.6013 5.19776 68.6013 5.19776L64.9621 0.194265Z" fill="url(#paint4_linear_329_5694)"/>
<path style="mix-blend-mode:screen" d="M66.1122 1.77553L64.9623 0.191089C64.9623 0.191089 64.4952 0.101026 63.6451 0.152729C63.6451 0.152729 60.2377 0.31951 57.695 0.645572C57.3833 0.681545 57.0787 0.761615 56.7908 0.883238L54.9566 1.68547C54.9398 1.6928 54.9253 1.70442 54.9147 1.71911C54.9041 1.73379 54.8978 1.75098 54.8965 1.76886L66.1122 1.77553Z" fill="url(#paint5_linear_329_5694)"/>
<path d="M93.5494 28.5592C93.5983 28.5592 93.4738 28.093 92.7963 28.093C92.6288 28.093 88.9776 28.093 87.1245 28.093L86.459 28.7393L93.5494 28.5592Z" fill="url(#paint6_linear_329_5694)"/>
<path opacity="0.7" d="M47.5685 6.31616L35.1094 11.3747L45.766 15.8328L72.1621 16.6292V12.5689C61.0718 8.48018 47.5685 6.31616 47.5685 6.31616Z" fill="url(#paint7_linear_329_5694)"/>
<path opacity="0.7" d="M72.1123 12.3738C61.0211 8.28757 47.5187 6.11938 47.5187 6.11938L35.0596 11.1796L36.1682 11.6432L47.5187 7.03503C47.5187 7.03503 51.3829 7.65546 56.6777 8.85713L47.0601 14.6112L47.3761 15.1115L57.5038 9.04893C61.9459 10.0805 67.2579 11.5006 72.1088 13.2894L72.1123 12.3738Z" fill="url(#paint8_linear_329_5694)"/>
<path d="M57.3709 8.04468L46.8877 14.3191L47.2037 14.8194L57.9685 8.37574C57.7614 8.27954 57.5616 8.16889 57.3709 8.04468Z" fill="#B0B6B5"/>
<path style="mix-blend-mode:screen" opacity="0.6" d="M56.1781 8.90625L47.1367 14.3184L47.263 14.5177L56.5079 8.9838C56.398 8.95712 56.2872 8.93377 56.1781 8.90625Z" fill="url(#paint9_linear_329_5694)"/>
<path d="M47.8843 6.07257C47.6549 6.03354 47.4188 6.0596 47.2042 6.14762L34.9941 11.1019L35.2268 11.6415L47.2832 6.74804C47.4912 6.66266 47.7203 6.63747 47.9427 6.67549C50.3205 7.08161 62.2128 9.21476 72.0537 12.8423L72.2675 12.2953C62.3107 8.62435 50.0938 6.44866 47.8843 6.07257Z" fill="url(#paint10_linear_329_5694)"/>
<path d="M71.9508 12.4987C62.1057 8.89533 50.2614 6.77551 47.9755 6.38524C47.8981 6.3719 47.8197 6.36521 47.7411 6.36522C47.5603 6.36529 47.3813 6.40044 47.2147 6.46863L35.3232 11.297L35.2305 11.081L47.2739 6.19093C47.4565 6.11592 47.6574 6.09362 47.8527 6.12672C50.1712 6.522 62.1658 8.666 72.0367 12.2794L71.9508 12.4987Z" fill="#03174C"/>
<path d="M70.0031 7.82642C70.4951 10.0555 71.335 12.9809 68.138 12.9809C66.819 12.9809 43.6071 12.2645 35.6631 10.7359C35.6631 10.7359 15.6937 11.4289 9.83209 11.966C8.56119 12.0827 4.01172 13.1443 4.01172 13.1443L59.1335 17.7242C64.2574 16.6401 70.0838 17.5757 75.3288 17.5632C74.7698 15.1882 72.0048 9.29661 70.0031 7.82642Z" fill="url(#paint11_linear_329_5694)"/>
<path d="M72.1369 19.5028C72.1833 8.57853 63.5111 0.462023 63.5068 0.0800892C63.5154 -0.0967011 66.2152 0.0650798 66.3956 0.135963C74.7972 7.57867 77.3751 16.856 78.0243 20.5252C78.1264 21.1148 73.5091 21.4609 72.1369 19.5028Z" fill="url(#paint12_linear_329_5694)"/>
<path style="mix-blend-mode:screen" d="M65.4335 2.10561L68.4278 2.2849C67.7503 1.57107 67.0316 0.867243 66.2544 0.174258C66.1608 0.15758 65.8749 0.126726 65.3708 0.0967047C64.828 0.0572 64.2833 0.0468997 63.7393 0.0658502C63.8423 0.193439 63.9969 0.380236 64.1686 0.573705C64.4915 0.956473 64.9337 1.48017 65.4335 2.10561Z" fill="url(#paint13_linear_329_5694)"/>
<path d="M1.06107 13.0408C0.32343 13.2201 -0.0157612 14.1457 0.0563708 14.24C0.901346 15.3524 2.55351 15.8036 14.6871 29.067C15.2407 29.6721 15.9199 30.1565 16.68 30.4884C17.4402 30.8203 18.2641 30.9921 19.0975 30.9925L88.6113 30.9992C91.6117 30.9992 85.0725 15.5567 83.1396 15.535C83.1396 15.535 57.6246 13.2393 36.0648 12.9207C21.7166 12.7097 9.36655 12.5196 1.06107 13.0408Z" fill="url(#paint14_linear_329_5694)"/>
<path style="mix-blend-mode:screen" d="M0.0967305 14.2909C0.0829911 14.2742 0.0692515 14.2576 0.0563708 14.24C-0.0157612 14.1458 0.32343 13.2193 1.06107 13.0409C9.36741 12.5172 21.7166 12.7073 36.0648 12.9216C57.6246 13.2402 83.1396 15.5359 83.1396 15.5359C83.4728 15.5359 83.9451 16.0104 84.4809 16.7735C81.9485 16.5633 56.3657 14.4785 36.0494 14.1783C21.3783 13.9632 9.28584 14.0007 0.0967305 14.2909Z" fill="url(#paint15_radial_329_5694)"/>
<path d="M89.2934 28.5917C89.1295 27.622 88.8942 26.665 88.5892 25.728C68.9358 16.6233 43.1006 14.8954 26.9335 14.4076C23.1664 14.2942 0.0351562 14.2583 0.0351562 14.2583C0.929937 15.2532 1.85134 15.8553 4.60438 18.5238C8.84329 22.6238 14.3278 25.2911 20.2476 26.1316C25.4806 26.8821 33.0974 27.4909 44.5037 27.8887C58.1985 28.364 87.0204 28.409 89.2934 28.5917Z" fill="#DC6513"/>
<path style="mix-blend-mode:multiply" opacity="0.6" d="M8.91309 22.8777C10.5129 24.5505 12.4166 26.5844 14.6879 29.067C15.2415 29.6721 15.9207 30.1565 16.6808 30.4884C17.441 30.8203 18.2649 30.9921 19.0983 30.9925H33.3289C30.095 30.1986 18.1125 30.3954 8.91309 22.8777Z" fill="url(#paint16_linear_329_5694)"/>
<path d="M88.4675 25.3178C73.7363 18.5839 53.6037 14.9189 26.9475 14.1158C23.2284 14.0041 0.318762 13.9666 0.0989308 13.9666C-0.0676598 13.9666 -0.0075496 14.5503 0.158182 14.5503C0.389177 14.5503 23.1649 14.5853 26.9278 14.6996C53.7197 15.5068 73.8823 19.2069 88.5689 26.0108C88.6094 26.0296 88.6537 26.0393 88.6985 26.0391C88.811 26.04 88.5869 25.3728 88.4675 25.3178Z" fill="url(#paint17_linear_329_5694)"/>
<path style="mix-blend-mode:screen" d="M88.5123 25.7322C73.8171 18.9575 53.6699 15.2716 26.9313 14.4669C23.2568 14.3559 1.4738 14.3201 0.21149 14.3176C0.185054 14.2423 0.17397 14.1627 0.178859 14.0833C1.7005 14.0833 23.3307 14.1233 26.939 14.2317C53.5789 15.0348 73.6797 18.694 88.3877 25.4178C88.4399 25.5183 88.4816 25.6237 88.5123 25.7322Z" fill="url(#paint18_linear_329_5694)"/>
<path d="M16.7646 16.2204C16.1938 16.0909 15.6101 16.0227 15.024 16.0169H14.9604C14.3966 16.0013 13.8326 16.0421 13.2773 16.1387C12.6866 16.2546 12.4109 16.4255 12.4092 16.6774C12.4075 16.9292 12.678 17.1035 13.2602 17.2411C13.8274 17.3622 14.4055 17.4289 14.9862 17.4404H15.1579C15.6825 17.4546 16.2072 17.4202 16.7251 17.3378C17.3142 17.2319 17.5941 17.0635 17.6061 16.8091C17.6181 16.5548 17.3399 16.3647 16.7646 16.2204Z" fill="#2B2D2D"/>
<path d="M29.2615 16.4231C28.6908 16.2936 28.1071 16.2254 27.5209 16.2196H27.4574C26.8932 16.2045 26.3289 16.2458 25.7734 16.343C25.1827 16.4589 24.907 16.6299 24.9053 16.8817C24.9036 17.1336 25.1741 17.3079 25.7563 17.4455C26.3235 17.5665 26.9016 17.6333 27.4823 17.6448H27.654C28.1786 17.659 28.7033 17.6246 29.2212 17.5422C29.8103 17.4363 30.0902 17.2678 30.1022 17.0135C30.1142 16.7591 29.8369 16.5673 29.2615 16.4231Z" fill="#2B2D2D"/>
<path d="M41.7596 16.6257C41.1888 16.4962 40.6051 16.428 40.019 16.4222H39.9554C39.3912 16.4071 38.8269 16.4485 38.2715 16.5456C37.6807 16.6616 37.405 16.8325 37.4033 17.0844C37.4016 17.3362 37.6721 17.5105 38.2543 17.6473C38.8215 17.7684 39.3997 17.8351 39.9803 17.8466H40.1521C40.6766 17.8607 41.2014 17.8264 41.7192 17.744C42.3083 17.6381 42.5882 17.4696 42.6002 17.2153C42.6123 16.9609 42.3349 16.7725 41.7596 16.6257Z" fill="#2B2D2D"/>
<path d="M16.7646 16.2204C16.1938 16.0909 15.6101 16.0227 15.024 16.0169H14.9604C14.3966 16.0013 13.8326 16.0421 13.2773 16.1387C12.6866 16.2546 12.4109 16.4255 12.4092 16.6774C12.4075 16.9292 12.678 17.1035 13.2602 17.2411C13.8274 17.3622 14.4055 17.4289 14.9862 17.4404H15.1579C15.6825 17.4546 16.2072 17.4203 16.7251 17.3378C17.3142 17.2319 17.5941 17.0635 17.6061 16.8091C17.6181 16.5548 17.3399 16.3647 16.7646 16.2204ZM16.6839 17.1494C16.1794 17.2297 15.6681 17.2629 15.1571 17.2486H14.9913C14.4243 17.2377 13.8597 17.1729 13.3057 17.0551C12.8763 16.9542 12.6076 16.8233 12.6084 16.6832C12.6093 16.5431 12.8789 16.4205 13.3151 16.3346C13.8565 16.2403 14.4064 16.2003 14.9561 16.2154H15.0188C15.5889 16.22 16.1567 16.2851 16.7122 16.4097C17.1416 16.5181 17.4052 16.6599 17.3992 16.8041C17.3932 16.9484 17.1201 17.071 16.6839 17.1494Z" fill="#03174C"/>
<path d="M29.2615 16.4231C28.6908 16.2936 28.1071 16.2254 27.5209 16.2196H27.4574C26.8932 16.2045 26.3289 16.2458 25.7734 16.343C25.1827 16.4589 24.907 16.6299 24.9053 16.8817C24.9036 17.1336 25.1741 17.3079 25.7563 17.4455C26.3235 17.5665 26.9016 17.6333 27.4823 17.6448H27.654C28.1786 17.659 28.7033 17.6246 29.2212 17.5422C29.8103 17.4363 30.0902 17.2678 30.1022 17.0135C30.1142 16.7591 29.8369 16.5673 29.2615 16.4231ZM29.1817 17.3562C28.6772 17.4365 28.1659 17.4697 27.6549 17.4555H27.4892C26.9221 17.4446 26.3575 17.3798 25.8035 17.262C25.3741 17.1611 25.1054 17.0302 25.1062 16.8901C25.1071 16.75 25.3767 16.6274 25.8129 16.5415C26.3543 16.4472 26.9042 16.4072 27.454 16.4222H27.5166C28.0874 16.4278 28.6558 16.4941 29.2117 16.6199C29.6411 16.7283 29.9047 16.8701 29.8987 17.0143C29.8927 17.1586 29.6171 17.2728 29.1817 17.3562Z" fill="#03174C"/>
<path d="M41.7596 16.6257C41.1888 16.4962 40.6051 16.428 40.019 16.4222H39.9554C39.3912 16.4071 38.8269 16.4485 38.2715 16.5456C37.6807 16.6616 37.405 16.8325 37.4033 17.0844C37.4016 17.3362 37.6721 17.5105 38.2543 17.6473C38.8215 17.7683 39.3997 17.8351 39.9803 17.8466H40.1521C40.6766 17.8607 41.2014 17.8264 41.7192 17.744C42.3083 17.6381 42.5882 17.4696 42.6002 17.2153C42.6123 16.9609 42.3349 16.7725 41.7596 16.6257ZM41.6788 17.5547C41.1755 17.6347 40.6654 17.668 40.1555 17.6539H39.9898C39.4227 17.6431 38.8581 17.5783 38.3041 17.4605C37.8748 17.3596 37.606 17.2286 37.6068 17.0885C37.6077 16.9484 37.8773 16.8258 38.3136 16.7399C38.8549 16.6456 39.4048 16.6057 39.9546 16.6207H40.0172C40.588 16.6263 41.1564 16.6926 41.7123 16.8183C42.1417 16.9267 42.4053 17.0685 42.3993 17.2128C42.3933 17.3571 42.1151 17.4763 41.6788 17.5547Z" fill="#03174C"/>
<path d="M92.6707 28.2522H85.588C85.0058 28.2522 85.0058 30.2995 85.588 30.2995H95.702C96.6268 30.2995 95.343 28.2522 92.6707 28.2522Z" fill="url(#paint19_linear_329_5694)"/>
<path style="mix-blend-mode:screen" d="M93.9173 28.6909C93.9173 28.8426 93.354 28.9652 89.6916 28.9652C86.0454 28.9652 85.4658 28.8426 85.4658 28.6909C85.4658 28.5391 85.9647 28.4165 89.6916 28.4165C93.7395 28.4165 93.9173 28.5391 93.9173 28.6909Z" fill="url(#paint20_radial_329_5694)"/>
<defs>
<linearGradient id="paint0_linear_329_5694" x1="76.0438" y1="5.07151" x2="76.7766" y2="5.15019" gradientUnits="userSpaceOnUse">
<stop stop-color="#626868"/>
<stop offset="0.03" stop-color="#6C7272"/>
<stop offset="0.07" stop-color="#878F8E"/>
<stop offset="0.13" stop-color="#B3BCBA"/>
<stop offset="0.15" stop-color="#C5CECC"/>
<stop offset="0.31" stop-color="#9EA6A5"/>
<stop offset="0.48" stop-color="#E6E8E8"/>
<stop offset="0.52" stop-color="#D0D4D3"/>
<stop offset="0.61" stop-color="#9EA6A5"/>
<stop offset="0.67" stop-color="#929A99"/>
<stop offset="0.72" stop-color="#7F8685"/>
<stop offset="0.81" stop-color="#5B6060"/>
<stop offset="0.85" stop-color="#4D5252"/>
<stop offset="0.9" stop-color="#525857"/>
<stop offset="0.97" stop-color="#626767"/>
<stop offset="1" stop-color="#6D7372"/>
</linearGradient>
<linearGradient id="paint1_linear_329_5694" x1="12372.3" y1="3344.46" x2="12397.2" y2="3400.22" gradientUnits="userSpaceOnUse">
<stop stop-color="#626868"/>
<stop offset="0.03" stop-color="#6C7272"/>
<stop offset="0.07" stop-color="#878F8E"/>
<stop offset="0.13" stop-color="#B3BCBA"/>
<stop offset="0.15" stop-color="#C5CECC"/>
<stop offset="0.31" stop-color="#9EA6A5"/>
<stop offset="0.48" stop-color="#E6E8E8"/>
<stop offset="0.52" stop-color="#D0D4D3"/>
<stop offset="0.61" stop-color="#9EA6A5"/>
<stop offset="0.67" stop-color="#929A99"/>
<stop offset="0.72" stop-color="#7F8685"/>
<stop offset="0.81" stop-color="#5B6060"/>
<stop offset="0.85" stop-color="#4D5252"/>
<stop offset="0.9" stop-color="#525857"/>
<stop offset="0.97" stop-color="#626767"/>
<stop offset="1" stop-color="#6D7372"/>
</linearGradient>
<linearGradient id="paint2_linear_329_5694" x1="75.1397" y1="1.17896" x2="74.5955" y2="4.78225" gradientUnits="userSpaceOnUse">
<stop stop-color="#03174C"/>
<stop offset="1" stop-color="#03174C"/>
</linearGradient>
<linearGradient id="paint3_linear_329_5694" x1="24427.8" y1="972.4" x2="24427.8" y2="1097.76" gradientUnits="userSpaceOnUse">
<stop stop-color="#292B2B"/>
<stop offset="1" stop-color="#0C0C0C"/>
</linearGradient>
<linearGradient id="paint4_linear_329_5694" x1="19890.5" y1="4218.05" x2="19890.5" y2="5439.5" gradientUnits="userSpaceOnUse">
<stop stop-color="#03174C"/>
<stop offset="1" stop-color="#0C0C0C"/>
</linearGradient>
<linearGradient id="paint5_linear_329_5694" x1="12784.2" y1="585.602" x2="12784.2" y2="646.222" gradientUnits="userSpaceOnUse">
<stop stop-color="#292B2B"/>
<stop offset="1" stop-color="#0C0C0C"/>
</linearGradient>
<linearGradient id="paint6_linear_329_5694" x1="90.0089" y1="28.0421" x2="90.0089" y2="28.2932" gradientUnits="userSpaceOnUse">
<stop stop-color="#CB9259"/>
<stop offset="1" stop-color="#B56C28"/>
</linearGradient>
<linearGradient id="paint7_linear_329_5694" x1="68.4352" y1="13.1543" x2="43.4516" y2="10.6233" gradientUnits="userSpaceOnUse">
<stop stop-color="#03174C"/>
<stop offset="1" stop-color="#03174C"/>
</linearGradient>
<linearGradient id="paint8_linear_329_5694" x1="39103.4" y1="4803.33" x2="39103.4" y2="6025.45" gradientUnits="userSpaceOnUse">
<stop stop-color="#80B4DB"/>
<stop offset="1" stop-color="#DEF1FF"/>
</linearGradient>
<linearGradient id="paint9_linear_329_5694" x1="56.0631" y1="8.37671" x2="47.8038" y2="15.1388" gradientUnits="userSpaceOnUse">
<stop stop-color="#FDFFFF"/>
<stop offset="0.09" stop-color="#F7F9F9"/>
<stop offset="0.22" stop-color="#E5E6E6"/>
<stop offset="0.36" stop-color="#C7C9C9"/>
<stop offset="0.53" stop-color="#9E9F9F"/>
<stop offset="0.7" stop-color="#696A6A"/>
<stop offset="0.89" stop-color="#2A2A2A"/>
<stop offset="1"/>
</linearGradient>
<linearGradient id="paint10_linear_329_5694" x1="35286.7" y1="3177.59" x2="41272.6" y2="10164.8" gradientUnits="userSpaceOnUse">
<stop stop-color="#626868"/>
<stop offset="0.03" stop-color="#6C7272"/>
<stop offset="0.07" stop-color="#878F8E"/>
<stop offset="0.13" stop-color="#B3BCBA"/>
<stop offset="0.15" stop-color="#C5CECC"/>
<stop offset="0.31" stop-color="#9EA6A5"/>
<stop offset="0.48" stop-color="#E6E8E8"/>
<stop offset="0.52" stop-color="#D0D4D3"/>
<stop offset="0.61" stop-color="#9EA6A5"/>
<stop offset="0.67" stop-color="#929A99"/>
<stop offset="0.72" stop-color="#7F8685"/>
<stop offset="0.81" stop-color="#5B6060"/>
<stop offset="0.85" stop-color="#4D5252"/>
<stop offset="0.9" stop-color="#525857"/>
<stop offset="0.97" stop-color="#626767"/>
<stop offset="1" stop-color="#6D7372"/>
</linearGradient>
<linearGradient id="paint11_linear_329_5694" x1="39.6724" y1="10.2156" x2="39.6724" y2="27.903" gradientUnits="userSpaceOnUse">
<stop stop-color="#DFE7EF"/>
<stop offset="0.28" stop-color="#D2DEEA"/>
<stop offset="0.8" stop-color="#B1C6DD"/>
<stop offset="1" stop-color="#A2BBD7"/>
</linearGradient>
<linearGradient id="paint12_linear_329_5694" x1="18277.3" y1="9601.38" x2="18277.3" y2="12105.5" gradientUnits="userSpaceOnUse">
<stop stop-color="#DFE7EF"/>
<stop offset="0.28" stop-color="#D2DEEA"/>
<stop offset="0.8" stop-color="#B1C6DD"/>
<stop offset="1" stop-color="#A2BBD7"/>
</linearGradient>
<linearGradient id="paint13_linear_329_5694" x1="65.4081" y1="-0.0950294" x2="69.7968" y2="8.73425" gradientUnits="userSpaceOnUse">
<stop stop-color="#D2D8D9"/>
<stop offset="0.11" stop-color="#CAD0D1"/>
<stop offset="0.28" stop-color="#B3B9BA"/>
<stop offset="0.5" stop-color="#8F9494"/>
<stop offset="0.75" stop-color="#5C6060"/>
<stop offset="1" stop-color="#212424"/>
</linearGradient>
<linearGradient id="paint14_linear_329_5694" x1="84973.1" y1="12060.7" x2="84973.1" y2="13279.8" gradientUnits="userSpaceOnUse">
<stop stop-color="#DFE7EF"/>
<stop offset="0.28" stop-color="#D2DEEA"/>
<stop offset="0.8" stop-color="#B1C6DD"/>
<stop offset="1" stop-color="#A2BBD7"/>
</linearGradient>
<radialGradient id="paint15_radial_329_5694" cx="0" cy="0" r="1" gradientUnits="userSpaceOnUse" gradientTransform="translate(72203.8 2117.19) scale(35375.3 1705.05)">
<stop stop-color="#D2D8D9"/>
<stop offset="0.11" stop-color="#CAD0D1"/>
<stop offset="0.28" stop-color="#B3B9BA"/>
<stop offset="0.5" stop-color="#8F9494"/>
<stop offset="0.75" stop-color="#5C6060"/>
<stop offset="1" stop-color="#212424"/>
</radialGradient>
<linearGradient id="paint16_linear_329_5694" x1="17.2366" y1="39.7595" x2="20.4403" y2="28.5433" gradientUnits="userSpaceOnUse">
<stop stop-color="#D4DDE6"/>
<stop offset="0.76" stop-color="#BBC6D1"/>
<stop offset="1" stop-color="#B2BEC9"/>
</linearGradient>
<linearGradient id="paint17_linear_329_5694" x1="-0.035887" y1="11.5007" x2="89.9016" y2="25.129" gradientUnits="userSpaceOnUse">
<stop stop-color="#626868"/>
<stop offset="0.01" stop-color="#6C7272"/>
<stop offset="0.04" stop-color="#878F8E"/>
<stop offset="0.07" stop-color="#B3BCBA"/>
<stop offset="0.08" stop-color="#C5CECC"/>
<stop offset="0.13" stop-color="#C5CECC"/>
<stop offset="0.16" stop-color="#9EA6A5"/>
<stop offset="0.23" stop-color="#9EA6A5"/>
<stop offset="0.25" stop-color="#E6E8E8"/>
<stop offset="0.32" stop-color="#E6E8E8"/>
<stop offset="0.34" stop-color="#D0D4D3"/>
<stop offset="0.38" stop-color="#9EA6A5"/>
<stop offset="0.53" stop-color="#929A99"/>
<stop offset="0.56" stop-color="#686E6D"/>
<stop offset="0.58" stop-color="#515656"/>
<stop offset="0.66" stop-color="#515656"/>
<stop offset="0.67" stop-color="#757979"/>
<stop offset="0.69" stop-color="#B1B5B5"/>
<stop offset="0.71" stop-color="#E6E8E8"/>
<stop offset="0.76" stop-color="#E6E8E8"/>
<stop offset="0.77" stop-color="#909494"/>
<stop offset="0.79" stop-color="#757979"/>
<stop offset="0.82" stop-color="#5F6464"/>
<stop offset="0.84" stop-color="#525656"/>
<stop offset="0.86" stop-color="#4D5252"/>
<stop offset="0.87" stop-color="#525857"/>
<stop offset="0.89" stop-color="#626767"/>
<stop offset="0.91" stop-color="#7B8181"/>
<stop offset="0.92" stop-color="#98A09F"/>
<stop offset="0.97" stop-color="#7F8685"/>
<stop offset="0.98" stop-color="#6D7372"/>
</linearGradient>
<linearGradient id="paint18_linear_329_5694" x1="2.1685" y1="11.9651" x2="88.3087" y2="24.2537" gradientUnits="userSpaceOnUse">
<stop/>
<stop offset="0.01" stop-color="#050505"/>
<stop offset="0.03" stop-color="#131414"/>
<stop offset="0.05" stop-color="#2B2D2D"/>
<stop offset="0.07" stop-color="#4D504F"/>
<stop offset="0.1" stop-color="#787D7C"/>
<stop offset="0.12" stop-color="#ABB3B1"/>
<stop offset="0.13" stop-color="#C5CECC"/>
<stop offset="0.16" stop-color="#9EA6A5"/>
<stop offset="0.23" stop-color="#9EA6A5"/>
<stop offset="0.25" stop-color="#F3F5F5"/>
<stop offset="0.32" stop-color="#E6E8E8"/>
<stop offset="0.34" stop-color="#D0D4D3"/>
<stop offset="0.38" stop-color="#9EA6A5"/>
<stop offset="0.53" stop-color="#929A99"/>
<stop offset="0.56" stop-color="#686E6D"/>
<stop offset="0.58" stop-color="#515656"/>
<stop offset="0.66" stop-color="#515656"/>
<stop offset="0.67" stop-color="#757979"/>
<stop offset="0.69" stop-color="#B1B5B5"/>
<stop offset="0.71" stop-color="#E6E8E8"/>
<stop offset="0.76" stop-color="#E6E8E8"/>
<stop offset="0.77" stop-color="#909494"/>
<stop offset="0.79" stop-color="#757979"/>
<stop offset="0.82" stop-color="#5F6464"/>
<stop offset="0.84" stop-color="#525656"/>
<stop offset="0.86" stop-color="#4D5252"/>
<stop offset="0.89" stop-color="#484C4C"/>
<stop offset="0.92" stop-color="#393D3D"/>
<stop offset="0.96" stop-color="#202323"/>
<stop offset="1"/>
</linearGradient>
<linearGradient id="paint19_linear_329_5694" x1="16197.7" y1="1453.52" x2="16197.7" y2="1530.01" gradientUnits="userSpaceOnUse">
<stop stop-color="#DFE7EF"/>
<stop offset="0.28" stop-color="#D2DEEA"/>
<stop offset="0.8" stop-color="#B1C6DD"/>
<stop offset="1" stop-color="#A2BBD7"/>
</linearGradient>
<radialGradient id="paint20_radial_329_5694" cx="0" cy="0" r="1" gradientUnits="userSpaceOnUse" gradientTransform="translate(12557.9 405.995) scale(840.836 54.5919)">
<stop stop-color="#D2D8D9"/>
<stop offset="0.11" stop-color="#CAD0D1"/>
<stop offset="0.28" stop-color="#B3B9BA"/>
<stop offset="0.5" stop-color="#8F9494"/>
<stop offset="0.75" stop-color="#5C6060"/>
<stop offset="1" stop-color="#212424"/>
</radialGradient>
</defs>
</svg>
