<svg width="38" height="57" viewBox="0 0 38 57" fill="none" xmlns="http://www.w3.org/2000/svg">
<g clip-path="url(#clip0_329_5614)">
<path d="M34.0873 43.967H3.89062L4.11516 42.8464H33.8643L34.0873 43.967Z" fill="#484463"/>
<path d="M35.9288 48.5633H2.09961L2.36567 47.3032H35.6628L35.9288 48.5633Z" fill="#484463"/>
<path d="M38 54.1574H0L0.404468 52.3242H37.5955L38 54.1574Z" fill="#484463"/>
<path d="M7.12672 56.9999L11.1145 35.9068L9.95646 35.6562L4.76758 56.9999H7.12672Z" fill="#FFDABB"/>
<path d="M6.16192 56.9999L10.6372 35.8033L9.47918 35.5527L3.78125 56.9999H6.16192Z" fill="#7F9AB5"/>
<path d="M9.98227 52.9602H7.71387V53.5963H9.98227V52.9602Z" fill="#7F9AB5"/>
<path d="M9.31075 53.3278V53.0502C9.30388 52.9332 9.25139 52.8232 9.16404 52.7427C9.07668 52.6623 8.96108 52.6174 8.84092 52.6174C8.72077 52.6174 8.60516 52.6623 8.51781 52.7427C8.43045 52.8232 8.37796 52.9332 8.37109 53.0502V53.3278H9.31075Z" fill="#484463"/>
<path d="M10.6639 47.5059H8.84766V48.0144H10.6639V47.5059Z" fill="#7F9AB5"/>
<path d="M10.1319 47.7997V47.5777C10.1319 47.4804 10.0923 47.3871 10.0218 47.3184C9.95127 47.2496 9.85563 47.2109 9.7559 47.2109C9.65618 47.2109 9.56053 47.2496 9.49002 47.3184C9.4195 47.3871 9.37988 47.4804 9.37988 47.5777V47.7997H10.1319Z" fill="#0C032E"/>
<path d="M10.83 43.085H9.61816V43.424H10.83V43.085Z" fill="#0C032E"/>
<path d="M10.475 43.2815V43.1315C10.475 43.0666 10.4486 43.0044 10.4016 42.9586C10.3546 42.9127 10.2908 42.887 10.2243 42.887C10.1578 42.887 10.0941 42.9127 10.0471 42.9586C10 43.0044 9.97363 43.0666 9.97363 43.1315V43.2815H10.475Z" fill="#0C032E"/>
<path d="M33.5373 56.9999L28.3485 35.6562L27.1904 35.9068L31.1782 56.9999H33.5373Z" fill="#7F9AB5"/>
<path d="M34.523 56.9999L28.825 35.5527L27.667 35.8033L32.1423 56.9999H34.523Z" fill="#FFDABB"/>
<path d="M28.3224 53.5947H30.5908V52.9587H28.3224V53.5947Z" fill="#7F9AB5"/>
<path d="M28.9861 53.3277V53.0502C28.9825 52.9878 28.9919 52.9254 29.0139 52.8667C29.0358 52.8079 29.0698 52.7542 29.1138 52.7088C29.1578 52.6634 29.2108 52.6272 29.2697 52.6024C29.3285 52.5777 29.3919 52.5649 29.4559 52.5649C29.52 52.5649 29.5834 52.5777 29.6422 52.6024C29.7011 52.6272 29.7541 52.6634 29.7981 52.7088C29.8421 52.7542 29.8761 52.8079 29.898 52.8667C29.92 52.9254 29.9294 52.9878 29.9258 53.0502V53.3277H28.9861Z" fill="#484463"/>
<path d="M27.6388 48.0144H29.4551V47.5059H27.6388V48.0144Z" fill="#7F9AB5"/>
<path d="M28.1709 47.7997V47.5777C28.1709 47.4804 28.2105 47.3871 28.281 47.3184C28.3515 47.2496 28.4472 47.2109 28.5469 47.2109C28.6466 47.2109 28.7423 47.2496 28.8128 47.3184C28.8833 47.3871 28.9229 47.4804 28.9229 47.5777V47.7997H28.1709Z" fill="#0C032E"/>
<path d="M27.4747 43.4255H28.6865V43.0865H27.4747V43.4255Z" fill="#0C032E"/>
<path d="M27.8301 43.2815V43.1315C27.8301 43.0666 27.8565 43.0044 27.9035 42.9586C27.9505 42.9127 28.0143 42.887 28.0808 42.887C28.1472 42.887 28.211 42.9127 28.258 42.9586C28.305 43.0044 28.3314 43.0666 28.3314 43.1315V43.2815H27.8301Z" fill="#0C032E"/>
<path d="M32.1391 1.07251H6.33932C5.82885 1.07251 5.41504 1.47616 5.41504 1.97408V4.45528C5.41504 4.9532 5.82885 5.35685 6.33932 5.35685H32.1391C32.6496 5.35685 33.0634 4.9532 33.0634 4.45528V1.97408C33.0634 1.47616 32.6496 1.07251 32.1391 1.07251Z" fill="#62748F"/>
<path d="M36.9926 8.60329L35.9853 36.987C35.9091 39.1348 34.9809 41.1697 33.3963 42.6628C31.8117 44.1558 29.6946 44.9903 27.4914 44.9902H10.9851C8.68155 44.9903 6.46793 44.1179 4.81104 42.5569C3.15414 40.9958 2.18349 38.8681 2.10375 36.6225L1.11181 8.60329C0.990314 5.18452 3.40789 2.35229 6.48216 2.35229H31.6192C34.695 2.35229 37.111 5.18302 36.9926 8.60329Z" fill="#D7D7DD"/>
<path d="M19.0945 40.2212V46.2832C18.1441 46.3222 16.4724 46.1887 14.6838 45.9967C11.2589 45.6292 7.40957 45.0471 7.40957 45.0471L2.48828 40.2197L19.0945 40.2212Z" fill="#2F2F2E"/>
<path d="M35.702 40.2212L30.7807 45.0486C30.7807 45.0486 27.0897 45.6066 23.7232 45.9741C21.8547 46.1782 20.0846 46.3237 19.0957 46.2832V40.2212H35.702Z" fill="#2F2F2E"/>
<path d="M12.7598 40.2212H19.0944V46.2832C18.144 46.3222 16.4723 46.1887 14.6837 45.9966L12.7598 40.2212Z" fill="#535351"/>
<path d="M25.6444 40.2212L23.7281 45.9741C21.8596 46.1782 20.0895 46.3237 19.1006 46.2832V40.2212H25.6444Z" fill="#535351"/>
<path d="M19.2389 40.5377C28.8562 40.5377 36.6525 37.1621 36.6525 32.9981C36.6525 28.8341 28.8562 25.4585 19.2389 25.4585C9.62155 25.4585 1.8252 28.8341 1.8252 32.9981C1.8252 37.1621 9.62155 40.5377 19.2389 40.5377Z" fill="#EFA06A"/>
<path d="M33.1483 23.2398L32.3209 25.1135C31.7926 26.3075 30.9185 27.3251 29.8058 28.0414C28.6931 28.7577 27.3902 29.1415 26.057 29.1458L12.1282 29.1848C10.7951 29.1878 9.49001 28.8111 8.3732 28.101C7.25638 27.3908 6.37642 26.378 5.8413 25.187L4.96777 23.2368L33.1483 23.2398Z" fill="#F57823"/>
<path d="M36.173 8.87476C36.4023 12.0023 35.9838 15.143 34.9427 18.1095L33.1479 23.2399H4.97358L2.67442 16.7894C1.9492 14.7472 1.65265 12.5836 1.80243 10.4274L2.00235 7.51716C2.19921 4.67443 4.66446 2.39275 7.48805 2.38525H9.71185L28.3435 2.33425H30.552C33.374 2.32675 35.8516 4.59343 36.0623 7.43465L36.173 8.87476Z" fill="#DC6513"/>
<path d="M32.1911 12.6475C32.2173 21.6482 26.3594 28.9568 19.1067 28.9763C11.8539 28.9958 5.953 21.7187 5.92686 12.721C5.91456 8.79821 7.02185 5.19642 8.87348 2.3807L29.1738 2.3252C31.0516 5.13042 32.1804 8.7247 32.1911 12.6475Z" fill="#62748F"/>
<path d="M11.0977 40.2212H19.0947V43.5709C16.0881 43.5769 13.3092 42.3274 11.0977 40.2212Z" fill="black"/>
<path d="M27.0512 40.2212C24.8505 42.3214 22.0961 43.562 19.1064 43.571V40.2212H27.0512Z" fill="black"/>
<path d="M30.484 16.4189H7.71387L9.25023 2.35229H28.9477L30.484 16.4189Z" fill="#03174C"/>
<path d="M23.8312 4.30841H14.27C14.0354 4.30826 13.8043 4.25295 13.5963 4.14716C13.3883 4.04137 13.2095 3.88822 13.075 3.70069C12.9405 3.51317 12.8544 3.29678 12.8239 3.06989C12.7934 2.84299 12.8194 2.61226 12.8998 2.39726L13.4488 0.934644C13.551 0.660133 13.7373 0.422932 13.9825 0.255213C14.2276 0.0874932 14.5197 -0.00262859 14.8191 -0.00292968H23.2775C23.5764 -0.00296571 23.8681 0.0864972 24.1131 0.253368C24.3582 0.42024 24.5448 0.656474 24.6478 0.930144L25.2014 2.39726C25.2818 2.61226 25.3078 2.84299 25.2773 3.06989C25.2468 3.29678 25.1607 3.51317 25.0262 3.70069C24.8918 3.88822 24.713 4.04137 24.5049 4.14716C24.2969 4.25295 24.0658 4.30826 23.8312 4.30841Z" fill="#465C77"/>
<path d="M23.1374 3.9799H15.0219C14.8204 3.97982 14.622 3.93233 14.4434 3.84147C14.2648 3.7506 14.1113 3.61904 13.996 3.45795C13.8807 3.29687 13.8069 3.11101 13.7809 2.91617C13.755 2.72133 13.7776 2.52326 13.8469 2.33877L14.3237 1.06967C14.4052 0.852389 14.5533 0.664792 14.7478 0.532254C14.9422 0.399715 15.1737 0.328631 15.4109 0.328613H22.6099C22.8706 0.328523 23.1251 0.406619 23.3389 0.552321C23.5526 0.698023 23.7153 0.904289 23.8048 1.14318L24.2739 2.39728C24.3397 2.57547 24.3606 2.76647 24.3349 2.9542C24.3092 3.14192 24.2377 3.32088 24.1263 3.47601C24.0149 3.63113 23.8669 3.75787 23.6948 3.84556C23.5227 3.93326 23.3315 3.97933 23.1374 3.9799Z" fill="#62748F"/>
<path d="M16.5677 3.6814C17.3202 3.6814 17.9302 3.08634 17.9302 2.3523C17.9302 1.61825 17.3202 1.02319 16.5677 1.02319C15.8151 1.02319 15.2051 1.61825 15.2051 2.3523C15.2051 3.08634 15.8151 3.6814 16.5677 3.6814Z" fill="white"/>
<path d="M16.5674 3.50567C17.2206 3.50567 17.7501 2.98919 17.7501 2.35208C17.7501 1.71497 17.2206 1.19849 16.5674 1.19849C15.9143 1.19849 15.3848 1.71497 15.3848 2.35208C15.3848 2.98919 15.9143 3.50567 16.5674 3.50567Z" fill="#62748F"/>
<path d="M16.5678 3.29277C17.1003 3.29277 17.532 2.87166 17.532 2.3522C17.532 1.83273 17.1003 1.41162 16.5678 1.41162C16.0352 1.41162 15.6035 1.83273 15.6035 2.3522C15.6035 2.87166 16.0352 3.29277 16.5678 3.29277Z" fill="white"/>
<path d="M21.5354 3.6814C22.288 3.6814 22.898 3.08634 22.898 2.3523C22.898 1.61825 22.288 1.02319 21.5354 1.02319C20.7829 1.02319 20.1729 1.61825 20.1729 2.3523C20.1729 3.08634 20.7829 3.6814 21.5354 3.6814Z" fill="white"/>
<path d="M21.5352 3.50567C22.1883 3.50567 22.7178 2.98919 22.7178 2.35208C22.7178 1.71497 22.1883 1.19849 21.5352 1.19849C20.882 1.19849 20.3525 1.71497 20.3525 2.35208C20.3525 2.98919 20.882 3.50567 21.5352 3.50567Z" fill="#62748F"/>
<path d="M21.5356 3.29277C22.0681 3.29277 22.4998 2.87166 22.4998 2.3522C22.4998 1.83273 22.0681 1.41162 21.5356 1.41162C21.003 1.41162 20.5713 1.83273 20.5713 2.3522C20.5713 2.87166 21.003 3.29277 21.5356 3.29277Z" fill="white"/>
<path d="M27.8312 24.8674H10.3683L7.71387 16.4187H30.484L27.8312 24.8674Z" fill="#03174C"/>
<path d="M28.3879 15.4646H10.0869L10.9789 6.83594C11.0243 6.40015 11.2339 5.99632 11.5673 5.70279C11.9006 5.40925 12.3338 5.24693 12.7829 5.24732H25.3244C25.8752 5.2469 26.4065 5.4463 26.8149 5.80672C27.2234 6.16715 27.4798 6.66286 27.5344 7.19747L28.3879 15.4646Z" fill="#798CA3"/>
<path d="M12.8118 20.415H25.664C25.8182 20.415 25.9661 20.4748 26.0751 20.5811C26.1841 20.6875 26.2454 20.8317 26.2454 20.9821V23.6163C26.2454 23.7667 26.1841 23.9109 26.0751 24.0173C25.9661 24.1236 25.8182 24.1833 25.664 24.1833H12.8133C12.6588 24.1833 12.5105 24.1234 12.4012 24.0168C12.2919 23.9102 12.2305 23.7656 12.2305 23.6148V20.9836C12.2303 20.909 12.2452 20.8351 12.2743 20.7661C12.3034 20.6972 12.3462 20.6345 12.4002 20.5817C12.4542 20.5288 12.5183 20.4869 12.589 20.4583C12.6596 20.4298 12.7353 20.415 12.8118 20.415Z" fill="#798CA3"/>
<path d="M11.7648 6.27197H11.2988V14.4371H11.7648V6.27197Z" fill="#F3F3F3"/>
<path d="M20.8048 6.27197H20.3389V14.4371H20.8048V6.27197Z" fill="#F3F3F3"/>
<path d="M17.5309 15.3463C17.5197 15.3466 17.5085 15.344 17.4986 15.3388C17.2972 15.2278 12.5496 12.5951 11.4823 11.419C10.3889 10.2189 11.2394 9.17632 11.2486 9.16881C11.2594 9.15608 11.2749 9.14806 11.2918 9.14651C11.3087 9.14497 11.3255 9.15002 11.3386 9.16056C11.3516 9.17111 11.3598 9.18628 11.3614 9.20273C11.363 9.21919 11.3578 9.23559 11.347 9.24832C11.3147 9.28732 10.5581 10.2144 11.5777 11.341C12.6296 12.5006 17.5109 15.2068 17.5601 15.2413C17.5725 15.2479 17.5822 15.2583 17.5878 15.2709C17.5934 15.2834 17.5945 15.2975 17.591 15.3108C17.5875 15.324 17.5795 15.3358 17.5683 15.3441C17.5571 15.3525 17.5434 15.3569 17.5294 15.3568L17.5309 15.3463Z" fill="#F3F3F3"/>
<path d="M26.7169 15.3463C26.7061 15.3465 26.6955 15.3439 26.6861 15.3388C26.4847 15.2278 21.7371 12.5951 20.6698 11.419C19.5764 10.2189 20.4269 9.17632 20.4361 9.16881C20.4469 9.15608 20.4624 9.14806 20.4793 9.14651C20.4962 9.14497 20.513 9.15002 20.5261 9.16056C20.5391 9.17111 20.5473 9.18628 20.5489 9.20273C20.5505 9.21919 20.5453 9.23559 20.5345 9.24832C20.5022 9.28732 19.7456 10.2144 20.7652 11.341C21.8171 12.5006 26.6984 15.2068 26.7476 15.2413C26.7601 15.2479 26.7699 15.2584 26.7755 15.2712C26.7811 15.2839 26.7821 15.2981 26.7784 15.3115C26.7746 15.3249 26.7664 15.3366 26.7549 15.3449C26.7435 15.3531 26.7295 15.3573 26.7153 15.3568L26.7169 15.3463Z" fill="#F3F3F3"/>
<path d="M18.538 15.4332C18.5011 15.1721 18.0013 14.9636 17.3877 14.9636C16.774 14.9636 16.2742 15.1706 16.2373 15.4332H18.538Z" fill="#F3F3F3"/>
<path d="M27.8671 15.4332C27.8302 15.1721 27.3304 14.9636 26.7168 14.9636C26.1031 14.9636 25.6033 15.1706 25.5664 15.4332H27.8671Z" fill="#F3F3F3"/>
<path d="M19.8008 4.20337H18.6797V19.8241H19.8008V4.20337Z" fill="#0C032E"/>
<path d="M37.1939 31.8415L36.4465 38.5081L36.3557 39.3181C36.3271 39.5874 36.2006 39.8378 35.9993 40.024C35.7979 40.2103 35.5348 40.3201 35.2577 40.3337L23.5973 41.2593C20.6125 41.495 17.6131 41.495 14.6283 41.2593L2.851 40.3337C2.57374 40.3204 2.31052 40.2107 2.10908 40.0244C1.90763 39.838 1.78129 39.5875 1.75294 39.3181L1.66221 38.5081L0.914787 31.8415C0.845581 31.222 1.25928 30.7104 1.83753 30.7104H36.2865C36.8494 30.7104 37.2631 31.222 37.1939 31.8415Z" fill="black"/>
<path d="M36.4464 38.5081L36.3556 39.3181C36.327 39.5874 36.2005 39.8377 35.9991 40.024C35.7978 40.2103 35.5347 40.3201 35.2576 40.3337L23.5972 41.2593C20.6124 41.495 17.613 41.495 14.6282 41.2593L2.85091 40.3337C2.57364 40.3204 2.31043 40.2107 2.10898 40.0243C1.90754 39.838 1.78119 39.5875 1.75285 39.3181L1.66211 38.5081H36.4464Z" fill="black"/>
<path d="M37.2131 30.7103V31.5579C37.2152 31.5984 37.2152 31.6389 37.2131 31.6794H0.897085C0.894982 31.6389 0.894982 31.5984 0.897085 31.5579V30.7103C0.897085 30.1193 1.35846 29.6362 1.90902 29.6362H36.2042C36.7579 29.6362 37.2131 30.1193 37.2131 30.7103Z" fill="black"/>
<path d="M37.2129 30.7104V31.5579C37.215 31.5984 37.215 31.639 37.2129 31.6794H28.7144L28.3223 29.6348H36.1994C36.7577 29.6363 37.2129 30.1193 37.2129 30.7104Z" fill="#2C2C2A"/>
<path d="M27.6619 33.5261V38.4C27.6611 38.6695 27.551 38.9277 27.3556 39.1183C27.1602 39.3089 26.8955 39.4163 26.6192 39.4171H11.7185C11.4422 39.4163 11.1774 39.3089 10.9821 39.1183C10.7867 38.9277 10.6766 38.6695 10.6758 38.4V33.5261C10.6766 33.2566 10.7867 32.9984 10.9821 32.8078C11.1774 32.6172 11.4422 32.5098 11.7185 32.509H26.6192C26.8955 32.5098 27.1602 32.6172 27.3556 32.8078C27.551 32.9984 27.6611 33.2566 27.6619 33.5261Z" fill="#465C77"/>
<path d="M11.2575 22.5752L7.07903 20.9836C6.80669 20.881 6.5038 20.8876 6.23643 21.002C5.96907 21.1163 5.75893 21.3292 5.65185 21.5941L5.53958 21.8762C5.43396 22.1418 5.44051 22.4374 5.55782 22.6983C5.67514 22.9592 5.89364 23.1642 6.16551 23.2683L10.344 24.8599L11.2575 22.5752Z" fill="#0C032E"/>
<path d="M8.30198 22.7678C8.47407 22.3379 8.25632 21.8534 7.81563 21.6855C7.37494 21.5176 6.8782 21.73 6.70611 22.1599C6.53403 22.5898 6.75178 23.0743 7.19246 23.2422C7.63315 23.41 8.1299 23.1976 8.30198 22.7678Z" fill="#FEFEFD"/>
<path d="M10.3401 23.5425C10.5123 23.1127 10.2946 22.6281 9.85394 22.4602C9.41329 22.2922 8.9165 22.5045 8.74434 22.9344C8.57218 23.3642 8.78984 23.8488 9.2305 24.0167C9.67115 24.1846 10.1679 23.9723 10.3401 23.5425Z" fill="#F57D7E"/>
<path d="M9.91866 23.3788C9.99949 23.1766 9.89695 22.9487 9.68962 22.8699C9.48229 22.791 9.24868 22.891 9.16785 23.0933C9.08701 23.2955 9.18956 23.5234 9.39689 23.6022C9.60422 23.6811 9.83782 23.5811 9.91866 23.3788Z" fill="#0C032E"/>
<path d="M26.9453 22.5752L31.1238 20.9836C31.3961 20.881 31.699 20.8876 31.9664 21.002C32.2337 21.1163 32.4439 21.3292 32.551 21.5941L32.6632 21.8762C32.7689 22.1418 32.7623 22.4374 32.645 22.6983C32.5277 22.9592 32.3092 23.1642 32.0373 23.2683L27.8588 24.8599L26.9453 22.5752Z" fill="#0C032E"/>
<path d="M31.0109 23.24C31.4516 23.0722 31.6694 22.5876 31.4973 22.1578C31.3252 21.7279 30.8285 21.5155 30.3878 21.6834C29.9471 21.8512 29.7293 22.3358 29.9014 22.7656C30.0735 23.1955 30.5703 23.4079 31.0109 23.24Z" fill="#FEFEFD"/>
<path d="M28.9731 24.021C29.4137 23.8531 29.6314 23.3685 29.4592 22.9387C29.2871 22.5089 28.7903 22.2966 28.3496 22.4645C27.909 22.6324 27.6913 23.117 27.8635 23.5468C28.0356 23.9767 28.5324 24.189 28.9731 24.021Z" fill="#F57D7E"/>
<path d="M28.808 23.604C29.0153 23.5251 29.1178 23.2972 29.0368 23.095C28.9559 22.8928 28.7223 22.7928 28.515 22.8718C28.3077 22.9507 28.2052 23.1786 28.2861 23.3808C28.3671 23.583 28.6007 23.6829 28.808 23.604Z" fill="#0C032E"/>
<path d="M30.7362 27.3201C29.4643 28.5047 27.7733 29.1656 26.0148 29.1652H12.086C10.3281 29.165 8.63773 28.5042 7.36621 27.3201C10.4174 26.1935 14.5282 25.5034 19.0543 25.5034C23.5803 25.5034 27.685 26.1935 30.7362 27.3201Z" fill="#DC6513"/>
<path d="M27.6623 33.5261V38.4C27.6614 38.6695 27.5513 38.9277 27.356 39.1183C27.1606 39.3089 26.8958 39.4163 26.6196 39.4171H26.0044L24.9971 32.509H26.6226C26.8984 32.5106 27.1623 32.6184 27.357 32.8089C27.5518 32.9993 27.6614 33.2571 27.6623 33.5261Z" fill="#7C9ECB"/>
<path d="M4.53487 34.0828H3.90587C3.39371 34.0828 2.97852 34.4878 2.97852 34.9873V36.0164C2.97852 36.516 3.39371 36.921 3.90587 36.921H4.53487C5.04703 36.921 5.46222 36.516 5.46222 36.0164V34.9873C5.46222 34.4878 5.04703 34.0828 4.53487 34.0828Z" fill="#DC6513"/>
<path d="M8.02957 34.0828H7.39903C6.88687 34.0828 6.47168 34.4878 6.47168 34.9873V36.0164C6.47168 36.516 6.88687 36.921 7.39903 36.921H8.02957C8.54174 36.921 8.95693 36.516 8.95693 36.0164V34.9873C8.95693 34.4878 8.54174 34.0828 8.02957 34.0828Z" fill="#F09A5F"/>
<path d="M34.198 36.9224H34.8285C35.3407 36.9224 35.7559 36.5174 35.7559 36.0178V34.9887C35.7559 34.4891 35.3407 34.0841 34.8285 34.0841H34.198C33.6858 34.0841 33.2706 34.4891 33.2706 34.9887V36.0178C33.2706 36.5174 33.6858 36.9224 34.198 36.9224Z" fill="#DC6513"/>
<path d="M30.7077 36.9224H31.3383C31.8504 36.9224 32.2656 36.5174 32.2656 36.0178V34.9887C32.2656 34.4891 31.8504 34.0841 31.3383 34.0841H30.7077C30.1956 34.0841 29.7804 34.4891 29.7804 34.9887V36.0178C29.7804 36.5174 30.1956 36.9224 30.7077 36.9224Z" fill="#F09A5F"/>
<path d="M19.5159 32.8301H18.8223V39.1051H19.5159V32.8301Z" fill="#33495E"/>
<path d="M20.8046 33.5427H17.3936V38.5396H20.8046V33.5427Z" fill="#33495E"/>
<path d="M25.5018 20.9207H12.9756V23.6809H25.5018V20.9207Z" fill="#0C032E"/>
<path opacity="0.3" d="M7.50367 24.017C8.37511 24.017 9.08155 23.3279 9.08155 22.4778C9.08155 21.6278 8.37511 20.9387 7.50367 20.9387C6.63223 20.9387 5.92578 21.6278 5.92578 22.4778C5.92578 23.3279 6.63223 24.017 7.50367 24.017Z" fill="#FEFEFD"/>
<path opacity="0.3" d="M30.9118 24.6664C32.151 24.6664 33.1556 23.6865 33.1556 22.4777C33.1556 21.269 32.151 20.2891 30.9118 20.2891C29.6726 20.2891 28.668 21.269 28.668 22.4777C28.668 23.6865 29.6726 24.6664 30.9118 24.6664Z" fill="#FEFEFD"/>
<path opacity="0.3" d="M7.50454 24.6664C8.74375 24.6664 9.74834 23.6865 9.74834 22.4777C9.74834 21.269 8.74375 20.2891 7.50454 20.2891C6.26532 20.2891 5.26074 21.269 5.26074 22.4777C5.26074 23.6865 6.26532 24.6664 7.50454 24.6664Z" fill="#FEFEFD"/>
<path opacity="0.3" d="M30.9119 24.017C31.7833 24.017 32.4898 23.3279 32.4898 22.4778C32.4898 21.6278 31.7833 20.9387 30.9119 20.9387C30.0404 20.9387 29.334 21.6278 29.334 22.4778C29.334 23.3279 30.0404 24.017 30.9119 24.017Z" fill="#FEFEFD"/>
</g>
<defs>
<clipPath id="clip0_329_5614">
<rect width="38" height="57" fill="white"/>
</clipPath>
</defs>
</svg>
